inDegrees=no
num_controls=7
num_derivatives=13
num_iterations=109
num_multipliers=7
num_parameters=0
num_slacks=7
num_states=26
objective=0.431118
objective_accelerations=0.050212
objective_balance=0.006760
objective_effort=0.031102
objective_height=0.341883
objective_ligament=0.001161
solver_duration=1396.081607
status=Solve_Succeeded
success=true
DataType=double
version=3
OpenSimVersion=4.5
endheader
time	/jointset/ground_pelvis/pelvis_tilt/value	/jointset/ground_pelvis/pelvis_tx/value	/jointset/ground_pelvis/pelvis_ty/value	/jointset/hip_l/hip_flexion_l/value	/jointset/hip_l/hip_adduction_l/value	/jointset/hip_l/hip_rotation_l/value	/jointset/back/lumbar_extension/value	/jointset/patellofemoral_l/patellar_flexion_l/value	/jointset/knee_l/knee_flexion_l/value	/jointset/knee_l/knee_adduction_l/value	/jointset/knee_l/knee_rotation_l/value	/jointset/ankle_l/ankle_angle_l/value	/jointset/subtalar_l/subtalar_angle_l/value	/jointset/ground_pelvis/pelvis_tilt/speed	/jointset/ground_pelvis/pelvis_tx/speed	/jointset/ground_pelvis/pelvis_ty/speed	/jointset/hip_l/hip_flexion_l/speed	/jointset/hip_l/hip_adduction_l/speed	/jointset/hip_l/hip_rotation_l/speed	/jointset/back/lumbar_extension/speed	/jointset/patellofemoral_l/patellar_flexion_l/speed	/jointset/knee_l/knee_flexion_l/speed	/jointset/knee_l/knee_adduction_l/speed	/jointset/knee_l/knee_rotation_l/speed	/jointset/ankle_l/ankle_angle_l/speed	/jointset/subtalar_l/subtalar_angle_l/speed	/forceset/tau_hip_flexion_l	/forceset/tau_hip_adduction_l	/forceset/tau_hip_rotation_l	/forceset/tau_knee_flexion_l	/forceset/tau_ankle_angle_l	/forceset/tau_subtalar_angle_l	/forceset/tau_lumbar_extension	lambda_cid13_p0	lambda_cid13_p1	lambda_cid13_p2	lambda_cid13_p3	lambda_cid13_p4	lambda_cid13_p5	lambda_cid14_p0	/jointset/ground_pelvis/pelvis_tilt/accel	/jointset/ground_pelvis/pelvis_tx/accel	/jointset/ground_pelvis/pelvis_ty/accel	/jointset/hip_l/hip_flexion_l/accel	/jointset/hip_l/hip_adduction_l/accel	/jointset/hip_l/hip_rotation_l/accel	/jointset/back/lumbar_extension/accel	/jointset/patellofemoral_l/patellar_flexion_l/accel	/jointset/knee_l/knee_flexion_l/accel	/jointset/knee_l/knee_adduction_l/accel	/jointset/knee_l/knee_rotation_l/accel	/jointset/ankle_l/ankle_angle_l/accel	/jointset/subtalar_l/subtalar_angle_l/accel	gamma_cid13_p0	gamma_cid13_p1	gamma_cid13_p2	gamma_cid13_p3	gamma_cid13_p4	gamma_cid13_p5	gamma_cid14_p0
0.5	-0.3276722689236796	-0.02805709679665313	0.7678131926331624	1.155808771343396	-0.3047078720489524	0.009733026736787533	-0.3204822350277859	0.8136432421510088	0.8136432421504601	-0.1729271901189016	0.1668968691232985	0.1672180340805094	-0.01834034862650561	-0.4205491229687685	-0.1614308922105593	-0.5063580654211689	2.105945111716126	0.01144230533717256	0.7047497197995606	-0.632008432918594	2.114900481086727	2.114900481087959	-0.007309605761563678	0.04154762424110656	0.5535292475623219	0.1044489616969616	-0.1816726407289008	0.02150572383108598	-0.02652609985728663	-0.2603406782000756	0.1019513079265689	0.03549436171086784	0.1822622175032362	-5.340009317648742	-17.09054131481395	5.303913387863742	-2.154704244825363	-603.1882732935229	-57.2950849424136	-20.68788264378616	0.4689395405891875	0.5401884077326248	-0.4491529519841398	-1.239713624726951	0.6807334635585163	-0.3638091671824268	1.560671538763458	-1.310489793716493	-1.310489793716489	0.04043277972613298	-0.069125727904315	-0.5631992225270473	0.7032670213618769	-4.293160599006432e-07	-4.555254786606704e-07	2.654328067195592e-06	2.904660895628587e-07	-5.158294004541898e-07	-3.103102968529953e-07	-4.149564373893278e-07
0.51	-0.33185341161063	-0.029644139707342	0.7627282647044263	1.17680257066008	-0.3045609150661453	0.01676360468796027	-0.3267237579632842	0.8347231691173653	0.8347231691163238	-0.1730019228696509	0.1673084596087976	0.1727238670623855	-0.01726244192268292	-0.4156267802486863	-0.155958013248172	-0.5105162825029953	2.092521883031369	0.01792148057528657	0.7012799125092928	-0.6162069538931443	2.100792214752475	2.100792214752525	-0.007632750144961573	0.04076800330351359	0.5475557711704451	0.1111081850507095	-0.1878921778069423	0.02193999717497214	-0.0265985593118918	-0.2633739465241694	0.1006098430837273	0.03549907120766404	0.1875344813664327	-6.008243093307699	-16.86717902982416	5.144478086852037	-2.000302101682952	-607.6520023938559	-56.9272760099098	-19.39547297819405	0.5117424975276031	0.5538466484539284	-0.3825694802129344	-1.437604566391812	0.6270185231192653	-0.3518175308469079	1.603266127614003	-1.504819351842155	-1.504819352019331	-0.06802990281331558	-0.08326200439889604	-0.6266414777511009	0.6433799338170616	-3.980902119153884e-07	-3.681831433894542e-07	2.536781254664202e-06	2.838231635240554e-07	-4.81067533528276e-07	-2.203217612515412e-07	-3.90984059611417e-07
0.52	-0.3359837586984176	-0.03117585202681454	0.7576050719260857	1.197653342274708	-0.3043500645371203	0.0237568343620504	-0.3328045900998922	0.8556532485606668	0.8556532485591205	-0.1730797554353221	0.1677120775393778	0.1781675213542964	-0.01611871699703558	-0.4103900031362112	-0.1503647739672941	-0.5140110353420644	2.077339571304946	0.02422101458065726	0.6972800643831067	-0.5998702731405647	2.084930976475722	2.084930976474591	-0.00792956874598106	0.03995311325743621	0.541093509569244	0.1176126060618905	-0.1941117148849792	0.02237427051885941	-0.02667101876650653	-0.2664072148482621	0.09926837824088565	0.03550378070446154	0.1928067452296336	-6.681674745457573	-16.64430705937565	4.986722521497033	-1.861337156442606	-612.2180019212504	-56.64231279767033	-18.10201947595553	0.531826419067737	0.5642604714307611	-0.3164601034326773	-1.591530233059861	0.644805217009852	-0.4698173343660639	1.667711884189438	-1.661084182216513	-1.661084182216472	0.04569793620181831	-0.07617954960119368	-0.6609562643918848	0.6723065528485158	-3.694810135997735e-07	-3.070304293744216e-07	2.422581529267752e-06	2.763327987734923e-07	-4.522375213381869e-07	-1.440277358154352e-07	-3.695735318739856e-07
0.53	-0.3400602753943897	-0.03265115420126251	0.7524502810901395	1.218343789684262	-0.3040770264298263	0.03070734994289789	-0.3387195463665605	0.8764161086546974	0.8764161086535931	-0.1731601264393733	0.1681073982469803	0.1835441336077019	-0.01491064479878017	-0.4048668748275115	-0.1446873913004628	-0.5168322874923711	2.060473277460421	0.03035376122176614	0.692736802740211	-0.5830519947002066	2.067354101353909	2.067354101353079	-0.008138654449502231	0.0391085145288789	0.5341438463886251	0.1239688784879592	-0.2002730049077065	0.02248143860473341	-0.02665990147095521	-0.2693122876494076	0.09755248044254847	0.03560674508909191	0.1979674785708279	-7.475556018313548	-16.44639165912555	4.83679812797086	-1.529621470018524	-616.7605763012854	-56.46896279987197	-16.81074792404024	0.5694975312911167	0.5707720872790869	-0.2478185365059298	-1.775712845985664	0.5922556865654768	-0.4598327672978041	1.699233647885968	-1.848958658099081	-1.848958658054	-0.05328864235864125	-0.08944603512630493	-0.7247151612476433	0.612110422242843	-3.397182094182414e-07	-2.128583411176724e-07	2.310036749931401e-06	2.723565650574779e-07	-4.220565100460818e-07	-5.859696596884454e-08	-3.453374705015801e-07
0.54	-0.3440801725083709	-0.0340694235644482	0.7472707055795548	1.238857267378203	-0.3037437115963401	0.03760978246970711	-0.3444642502840399	0.8969946061013226	0.8969946061006634	-0.1732424036642049	0.1684941037671684	0.1888487004660312	-0.0136400453093127	-0.3990660867380117	-0.1389582117148362	-0.5189679702697264	2.041945628182424	0.03627635981903748	0.6876634535754563	-0.5658198033027706	2.04805844699468	2.048058446994151	-0.008310812902204695	0.03823007577458922	0.5266844305539758	0.1301180643043004	-0.2064342949304292	0.02258860669060917	-0.02664878417541375	-0.2722173604505518	0.09583658264421141	0.03570970947372442	0.2031282119120263	-8.274542896896515	-16.24935110307257	4.689035423570714	-1.211243737725759	-621.4004647415842	-56.3732151632304	-15.52659864230639	0.5873583752277804	0.5746198551898261	-0.179346228842417	-1.923801319754393	0.6027756082423449	-0.5758348387378366	1.750494475605025	-2.004840029699682	-2.004840029699738	0.05308338636556507	-0.08294755474766322	-0.7629067951979321	0.6308892309030402	-3.08679075342503e-07	-8.215417923178956e-08	2.199322974746649e-06	2.722683061030918e-07	-3.903807763432354e-07	3.694254237445255e-08	-3.179752868096285e-07
0.55	-0.3480408164741223	-0.03543016707208285	0.742073233523878	1.259177393977382	-0.3033520583276108	0.04445894295906477	-0.3500346144795446	0.9173717658739431	0.9173717658733849	-0.1733259170063152	0.1688716763705212	0.1940763496278405	-0.01230878755180833	-0.3930237079974329	-0.1331836529280116	-0.5204077361677659	2.021810050041981	0.04201680733151622	0.6820864819095211	-0.5481954370241878	2.027098637256783	2.027098637256011	-0.008387202148124596	0.03728108703309664	0.5187751399101369	0.1360957536635761	-0.2123226509304652	0.02265372642445046	-0.02659845559839161	-0.2754400468942965	0.09465690450605933	0.03549762718354611	0.2080730449324157	-8.909183518849925	-15.9287442783164	4.503846573470146	-1.005865642196298	-626.0323842042957	-56.08417734411924	-14.25356673856063	0.6185072049808232	0.5799538670741246	-0.1085606862285883	-2.098912434026777	0.5537406922672657	-0.5612096204231211	1.777047520072555	-2.182721376617338	-2.182721376653685	-0.03725291419879694	-0.1018046333567796	-0.8154515189682898	0.5752988228835536	-2.769926391611132e-07	1.316932789168217e-08	2.06802048541425e-06	2.652804788763887e-07	-3.576256634202059e-07	1.133259269834973e-07	-2.908993966739661e-07
0.5600000000000001	-0.3519398707361666	-0.03673294899652017	0.7368649100260319	1.279288069520591	-0.3029041883098531	0.05124981747378284	-0.3554270070490457	0.9375310935630279	0.9375310935625687	-0.1734100448077092	0.1692395730665577	0.1992228036192132	-0.01091893489382246	-0.3867481459965398	-0.1273658950753688	-0.5211382587035557	2.000055416988037	0.04751970962465965	0.6760062586475155	-0.5302254781021002	2.004492030287582	2.004492030286568	-0.00843370475916483	0.03629489431133488	0.5104453964666404	0.1418370444006009	-0.218211006930497	0.02271884615829347	-0.02654812702137761	-0.27866273333804	0.09347722636790738	0.03528554489336991	0.2130178779528087	-9.548850053457251	-15.60745016599732	4.318769998358611	-0.8153329284806294	-630.7584894679695	-55.8611891647254	-12.99459707307398	0.6339950272906284	0.5832596683534694	-0.03749755639247413	-2.247612302454532	0.5552665643752832	-0.676485157951928	1.819613004305983	-2.334199475960321	-2.334199475960329	0.05906071334150433	-0.09038835080149413	-0.8469973551294452	0.58360950645287	-2.445294404529417e-07	6.603604930026196e-08	1.912011539104674e-06	2.500131697229054e-07	-3.235752954329569e-07	1.667219631114398e-07	-2.641670588058508e-07
